<svg id="Laag_5" data-name="Laag 5" xmlns="http://www.w3.org/2000/svg" xmlns:xlink="http://www.w3.org/1999/xlink" viewBox="0 0 145.22 150.2"><defs><style>.cls-1,.cls-4,.cls-7{fill:none;}.cls-2{clip-path:url(#clip-path);}.cls-3{clip-path:url(#clip-path-2);}.cls-4{stroke:#ff7e70;stroke-width:5px;}.cls-4,.cls-7{stroke-linecap:round;}.cls-5{fill:#ff7e70;}.cls-6{clip-path:url(#clip-path-3);}.cls-7{stroke:#7163ff;stroke-width:10px;}.cls-8{clip-path:url(#clip-path-4);}</style><clipPath id="clip-path"><rect class="cls-1" x="29.35" width="88.59" height="42.65"/></clipPath><clipPath id="clip-path-2"><polygon class="cls-1" points="29.68 4.46 61.32 4.46 61.32 17.92 83.27 17.92 83.27 4.46 110.66 4.46 110.66 43.75 29.68 43.75 29.68 4.46"/></clipPath><clipPath id="clip-path-3"><rect class="cls-1" x="35.28" y="44.85" width="109.94" height="93.8"/></clipPath><clipPath id="clip-path-4"><rect class="cls-1" x="16.06" y="80.27" width="39.81" height="64.67" transform="translate(80.2 2.98) rotate(39.69)"/></clipPath></defs><g id="Laag_3" data-name="Laag 3"><g class="cls-2"><g class="cls-3"><line class="cls-4" x1="39.58" y1="40.15" x2="104.88" y2="40.15"/><ellipse class="cls-5" cx="72.23" cy="35.35" rx="32.65" ry="30.02"/></g><rect class="cls-5" x="65.12" y="0.84" width="14.31" height="24.15" rx="7.15"/></g></g><g class="cls-6"><path class="cls-7" d="M124.7,132.71s1-32.09-28.92-45.76c0,0-7.8-5.74-21.87-5.74S41,69.72,46.78,46.74"/><path class="cls-7" d="M98.87,46.74s6.93,29.91-25,34.47"/></g><g class="cls-8"><path class="cls-7" d="M20.83,132.71s-1-32.09,28.92-45.76c0,0,12.21-5.61,18.2-6.39"/></g></svg>